<?xml version="1.0" encoding="UTF-8"?>
<svg width="31px" height="30px" viewBox="0 0 31 30" version="1.1" xmlns="http://www.w3.org/2000/svg" xmlns:xlink="http://www.w3.org/1999/xlink">
    <!-- Generator: Sketch 40.3 (33839) - http://www.bohemiancoding.com/sketch -->
    <title>facebook</title>
    <desc>Created with Sketch.</desc>
    <defs></defs>
    <g id="Symbols" stroke="none" stroke-width="1" fill="none" fill-rule="evenodd">
        <g id="global/footer" transform="translate(-55.000000, -220.000000)" fill="#4E439B">
            <g id="Group-2" transform="translate(55.000000, 220.000000)">
                <path d="M15.5,3.55271368e-15 C7.22363281,3.55271368e-15 0.5,6.72363281 0.5,15 C0.5,23.1738281 7.03320312,29.8242188 15.1630859,30 L15.1630859,18.1201172 L11.75,18.1201172 L11.75,14.3701172 L15.1630859,14.3701172 L15.1630859,10.6201172 C15.1630859,7.64648438 16.9794922,5.63964844 20.5830078,5.63964844 C22.1650391,5.63964844 23.2783203,5.88867188 23.2783203,5.88867188 L23.2783203,9.375 L20.890625,9.375 C19.7919922,9.375 19.25,9.99023438 19.25,11.0742188 L19.25,14.3701172 L23,14.3701172 L22.4580078,18.1201172 L19.25,18.1201172 L19.25,29.53125 C25.7246094,27.8613281 30.5,21.9873047 30.5,15 C30.5,6.72363281 23.7763672,3.55271368e-15 15.5,3.55271368e-15 L15.5,3.55271368e-15 Z" id="facebook"></path>
            </g>
        </g>
    </g>
</svg>