<?xml version="1.0" encoding="UTF-8"?>
<svg width="31px" height="30px" viewBox="0 0 31 30" version="1.1" xmlns="http://www.w3.org/2000/svg" xmlns:xlink="http://www.w3.org/1999/xlink">
    <!-- Generator: Sketch 40.3 (33839) - http://www.bohemiancoding.com/sketch -->
    <title>google+</title>
    <desc>Created with Sketch.</desc>
    <defs></defs>
    <g id="Symbols" stroke="none" stroke-width="1" fill="none" fill-rule="evenodd">
        <g id="global/footer" transform="translate(-178.000000, -220.000000)" fill="#4E439B">
            <g id="Group-2" transform="translate(55.000000, 220.000000)">
                <path d="M138.5,3.55271368e-15 C132.523438,3.55271368e-15 127.381836,3.47167969 124.964844,8.54003906 C126.385742,7.08984375 128.495117,6.10839844 130.692383,6.10839844 L139.232422,6.10839844 L137.313477,7.5 L134.618164,7.5 C136.419922,8.18847656 137.357422,10.2832031 137.357422,12.4365234 C137.357422,14.2382813 136.375977,15.8056641 134.955078,16.9042969 C133.563477,17.9882813 133.329102,18.4423828 133.329102,19.3359375 C133.329102,20.1416016 134.779297,21.4599609 135.555664,22.0166016 C137.811523,23.6132813 138.573242,25.0634766 138.573242,27.5390625 C138.573242,28.3740234 138.324219,29.1943359 137.914062,30 L138.5,30 C146.805664,30 153.5,23.3056641 153.5,15 C153.5,6.69433594 146.805664,3.55271368e-15 138.5,3.55271368e-15 L138.5,3.55271368e-15 Z M146,11.25 L146,15 L144.125,15 L144.125,11.25 L140.375,11.25 L140.375,9.375 L144.125,9.375 L144.125,5.625 L146,5.625 L146,9.375 L149.75,9.375 L149.75,11.25 L146,11.25 Z M131,17.7099609 C133.182617,17.7832031 134.676758,15.4833984 134.295898,12.5976562 C133.915039,9.7265625 131.834961,7.39746094 129.608398,7.32421875 C127.425781,7.25097656 125.960938,9.47753906 126.341797,12.3632812 C126.722656,15.2490234 128.817383,17.6367187 131,17.7099609 L131,17.7099609 Z M131.27832,22.5292969 C130.648438,21.8701172 130.135742,21.1083984 130.135742,20.1708984 C130.135742,19.5849609 130.311523,19.0576172 130.545898,18.5742188 L129.78418,18.5742188 C126.59082,18.5742188 124.261719,16.7431641 123.529297,14.1943359 C123.5,14.4726563 123.5,14.7216797 123.5,15 C123.5,18.0615234 124.408203,20.8740234 125.960938,23.2617188 C127.118164,22.8076172 128.392578,22.5292969 129.813477,22.5292969 L131.27832,22.5292969 Z M136.244141,27.0117187 C135.892578,25.5908203 134.618164,24.9023437 132.845703,23.6865234 C132.186523,23.4667969 131.483398,23.3349609 130.72168,23.3349609 C129.256836,23.3056641 127.879883,23.7158203 126.766602,24.375 C129.022461,27.1875 132.245117,29.1650391 135.96582,29.7949219 C136.244141,29.1943359 136.34668,28.5791016 136.34668,27.8759766 C136.34668,27.5976562 136.317383,27.2900391 136.244141,27.0117187 L136.244141,27.0117187 Z" id="google+"></path>
            </g>
        </g>
    </g>
</svg>