<?xml version="1.0" encoding="UTF-8"?>
<svg width="153px" height="96px" viewBox="0 0 153 96" version="1.1" xmlns="http://www.w3.org/2000/svg" xmlns:xlink="http://www.w3.org/1999/xlink">
    <!-- Generator: Sketch 42 (36781) - http://www.bohemiancoding.com/sketch -->
    <title>offline</title>
    <desc>Created with Sketch.</desc>
    <defs></defs>
    <g id="Checkout" stroke="none" stroke-width="1" fill="none" fill-rule="evenodd">
        <g id="templates/checkout/offline" transform="translate(-83.000000, -193.000000)" fill="#4E439B">
            <g id="offline" transform="translate(83.000000, 193.000000)">
                <path d="M110.814787,42.255363 C108.76814,25.6148129 94.5403223,13 77.7260726,13 C66.3195135,13 55.8279364,18.7334724 49.686215,28.3139917 C46.8820489,27.8422264 44.9602186,27.5779468 43.0858086,27.5779468 C28.7013161,27.5779468 17,39.2505061 17,53.6045627 C17,67.9586194 28.7013161,79.6311787 43.0858086,79.6311787 L116.425743,79.6311787 L116.425743,75.6311787 L43.0858086,75.6311787 C30.9082548,75.6311787 21,65.7472741 21,53.6045627 C21,41.4618514 30.9082548,31.5779468 43.0858086,31.5779468 C44.6305324,31.5779468 46.2715735,31.8051187 48.6027707,32.3524375 C48.8705355,32.4201289 49.1724005,32.456673 49.4793729,32.456673 C50.8298929,32.456673 52.1544599,31.7401822 52.9568189,30.619143 C58.4175879,22.0628713 67.6591208,17 77.7260726,17 C92.5180845,17 105.044698,28.1064743 106.857759,42.8331473 C107.070811,44.1051167 107.680539,45.1761042 108.627403,45.781684 C109.294397,46.2891877 110.065669,46.5608365 110.8833,46.5608365 C111.293833,46.5608365 111.705129,46.4915222 112.103186,46.3600567 C113.788537,45.8426672 115.117346,45.6159696 116.425743,45.6159696 C124.723857,45.6159696 131.475248,52.3507677 131.475248,60.6235741 C131.475248,68.8963806 124.723857,75.6311787 116.425743,75.6311787 L116.425743,79.6311787 C126.930796,79.6311787 135.475248,71.1077259 135.475248,60.6235741 C135.475248,50.1394224 126.930796,41.6159696 116.425743,41.6159696 C114.709273,41.6159696 113.012426,41.9020577 110.960941,42.5270143 C110.853477,42.4178838 110.829527,42.342546 110.814787,42.255363 Z" id="Fill-1" fill-rule="nonzero"></path>
                <path d="M73.627417,47.627417 L61.6291603,47.627417 C60.5166787,47.627417 59.627417,48.5228475 59.627417,49.627417 C59.627417,50.7396874 60.523628,51.627417 61.6291603,51.627417 L73.627417,51.627417 L73.627417,63.6256737 C73.627417,64.7381553 74.5228475,65.627417 75.627417,65.627417 C76.7396874,65.627417 77.627417,64.731206 77.627417,63.6256737 L77.627417,51.627417 L89.6256737,51.627417 C90.7381553,51.627417 91.627417,50.7319865 91.627417,49.627417 C91.627417,48.5151466 90.731206,47.627417 89.6256737,47.627417 L77.627417,47.627417 L77.627417,35.6291603 C77.627417,34.5166787 76.7319865,33.627417 75.627417,33.627417 C74.5151466,33.627417 73.627417,34.523628 73.627417,35.6291603 L73.627417,47.627417 Z" id="Combined-Shape" transform="translate(75.627417, 49.627417) rotate(-315.000000) translate(-75.627417, -49.627417) "></path>
                <path d="M116.890189,0.547853376 L118.753724,4.24525611 L122.451989,6.10851335 C122.943963,6.35445037 123.13996,6.95671956 122.893868,7.44859359 C122.793783,7.64663706 122.635253,7.79668264 122.451989,7.89048722 L118.753724,9.75374446 L116.890189,13.4511472 C116.644306,13.9430212 116.041704,14.1410647 115.54973,13.8930408 C115.35175,13.7929757 115.201674,13.6345826 115.10785,13.4511472 L113.246298,9.75374446 L109.547929,7.89048722 C109.055954,7.64246333 108.860061,7.04217667 109.106153,6.55030263 C109.206239,6.35236351 109.364769,6.20231793 109.547929,6.10851335 L113.246298,4.24525611 L115.10785,0.547853376 C115.355924,0.0559793397 115.956334,-0.139872923 116.448309,0.106064095 C116.646289,0.204042398 116.796469,0.362435437 116.890189,0.547853376 L116.890189,0.547853376 L116.890189,0.547853376 Z M117.119478,5.43737763 L115.999854,3.21559701 L114.880439,5.43737763 C114.786615,5.62081305 114.636435,5.77920609 114.438455,5.87927125 L112.214236,6.99845685 L114.438455,8.11983366 C114.621928,8.21363823 114.780354,8.36368381 114.880439,8.56162294 L115.999854,10.7854904 L117.119478,8.56162294 C117.213197,8.37818752 117.363378,8.21979448 117.561253,8.11983366 L119.785577,6.99845685 L117.561253,5.87927125 C117.377989,5.78546668 117.219564,5.6354211 117.119478,5.43737763 L117.119478,5.43737763 Z" id="Shape"></path>
                <path d="M146.890189,32.5478534 L148.753724,36.2452561 L152.451989,38.1085134 C152.943963,38.3544504 153.13996,38.9567196 152.893868,39.4485936 C152.793783,39.6466371 152.635253,39.7966826 152.451989,39.8904872 L148.753724,41.7537445 L146.890189,45.4511472 C146.644306,45.9430212 146.041704,46.1410647 145.54973,45.8930408 C145.35175,45.7929757 145.201674,45.6345826 145.10785,45.4511472 L143.246298,41.7537445 L139.547929,39.8904872 C139.055954,39.6424633 138.860061,39.0421767 139.106153,38.5503026 C139.206239,38.3523635 139.364769,38.2023179 139.547929,38.1085134 L143.246298,36.2452561 L145.10785,32.5478534 C145.355924,32.0559793 145.956334,31.8601271 146.448309,32.1060641 C146.646289,32.2040424 146.796469,32.3624354 146.890189,32.5478534 L146.890189,32.5478534 L146.890189,32.5478534 Z M147.119478,37.4373776 L145.999854,35.215597 L144.880439,37.4373776 C144.786615,37.620813 144.636435,37.7792061 144.438455,37.8792713 L142.214236,38.9984569 L144.438455,40.1198337 C144.621928,40.2136382 144.780354,40.3636838 144.880439,40.5616229 L145.999854,42.7854904 L147.119478,40.5616229 C147.213197,40.3781875 147.363378,40.2197945 147.561253,40.1198337 L149.785577,38.9984569 L147.561253,37.8792713 C147.377989,37.7854667 147.219564,37.6354211 147.119478,37.4373776 L147.119478,37.4373776 Z" id="Shape-Copy-2"></path>
                <polygon id="Shape-Copy" points="128 26.6 124.400038 26.6 124.400038 23 122.599962 23 122.599962 26.6 119 26.6 119 28.4 122.599962 28.4 122.599962 32 124.400038 32 124.400038 28.4 128 28.4"></polygon>
                <path d="M7.89018886,18.5478534 L9.75372362,22.2452561 L13.4519885,24.1085134 C13.9439633,24.3544504 14.1399601,24.9567196 13.8938683,25.4485936 C13.7937827,25.6466371 13.6352528,25.7966826 13.4519885,25.8904872 L9.75372362,27.7537445 L7.89018886,31.4511472 C7.6443058,31.9430212 7.04170445,32.1410647 6.5497296,31.8930408 C6.35174991,31.7929757 6.20167358,31.6345826 6.10784978,31.4511472 L4.24629794,27.7537445 L0.547928697,25.8904872 C0.0559538503,25.6424633 -0.139938553,25.0421767 0.106153235,24.5503026 C0.206238912,24.3523635 0.364768778,24.2023179 0.547928697,24.1085134 L4.24629794,22.2452561 L6.10784978,18.5478534 C6.35592449,18.0559793 6.95633419,17.8601271 7.44830903,18.1060641 C7.64628873,18.2040424 7.79646942,18.3624354 7.89018886,18.5478534 L7.89018886,18.5478534 L7.89018886,18.5478534 Z M8.11947794,23.4373776 L6.99985423,21.215597 L5.88043926,23.4373776 C5.78661546,23.620813 5.63643476,23.7792061 5.43845507,23.8792713 L3.21423616,24.9984569 L5.43845507,26.1198337 C5.62192808,26.2136382 5.78035358,26.3636838 5.88043926,26.5616229 L6.99985423,28.7854904 L8.11947794,26.5616229 C8.21319737,26.3781875 8.36337807,26.2197945 8.5612534,26.1198337 L10.7855767,24.9984569 L8.5612534,23.8792713 C8.37798912,23.7854667 8.21956362,23.6354211 8.11947794,23.4373776 L8.11947794,23.4373776 Z" id="Shape-Copy-4"></path>
                <polygon id="Shape-Copy-3" points="38 12.6 34.4000378 12.6 34.4000378 9 32.5999622 9 32.5999622 12.6 29 12.6 29 14.4 32.5999622 14.4 32.5999622 18 34.4000378 18 34.4000378 14.4 38 14.4"></polygon>
                <path d="M65.8033197,80.4151193 C70.4011452,89.4583321 83.7711761,96 99.5483412,96 C119.127752,96 135,85.9253545 135,73.4976495 C135,65.0618691 127.686806,57.7102692 116.865098,53.8578072 C118.391286,50.1964038 119.21485,46.2958539 119.21485,42.2484747 C119.21485,21.1244254 96.7809916,4 69.107425,4 C41.4338583,4 19,21.1244254 19,42.2484747 C19,62.5250977 39.6700194,79.1165632 65.8033197,80.4151193 Z" id="Combined-Shape" opacity="0.100000001" transform="translate(77.000000, 50.000000) rotate(180.000000) translate(-77.000000, -50.000000) "></path>
            </g>
        </g>
    </g>
</svg>