<?xml version="1.0" encoding="UTF-8"?>
<svg width="30px" height="30px" viewBox="0 0 30 30" version="1.1" xmlns="http://www.w3.org/2000/svg" xmlns:xlink="http://www.w3.org/1999/xlink">
    <!-- Generator: Sketch 40.3 (33839) - http://www.bohemiancoding.com/sketch -->
    <title>twitter</title>
    <desc>Created with Sketch.</desc>
    <defs></defs>
    <g id="Symbols" stroke="none" stroke-width="1" fill="none" fill-rule="evenodd">
        <g id="global/footer" transform="translate(-117.000000, -220.000000)" fill="#4E439B">
            <g id="Group-2" transform="translate(55.000000, 220.000000)">
                <path d="M77,3.55271368e-15 C68.6943359,3.55271368e-15 62,6.69433594 62,15 C62,23.3056641 68.6943359,30 77,30 C85.3056641,30 92,23.3056641 92,15 C92,6.69433594 85.3056641,3.55271368e-15 77,3.55271368e-15 L77,3.55271368e-15 Z M86.1259766,11.7041016 L86.1259766,12.2607422 C86.1259766,17.8857422 81.8632812,24.375 74.0117188,24.375 C71.6240234,24.375 69.3681641,23.7158203 67.4931641,22.5 C67.8007812,22.5292969 68.1523438,22.5732422 68.4892578,22.5732422 C70.5107422,22.5732422 72.3125,21.7675781 73.7773438,20.625 C71.9316406,20.5957031 70.3349609,19.4384766 69.8076172,17.7392578 C70.0566406,17.7832031 70.3349609,17.8125 70.6132812,17.8125 C70.9941406,17.8125 71.375,17.7832031 71.7265625,17.6806641 C69.7783203,17.2558594 68.3134766,15.5566406 68.3134766,13.4765625 L68.3134766,13.4326172 C68.8701172,13.7548828 69.5292969,13.9599609 70.2324219,13.9599609 C69.0898438,13.1982422 68.3574219,11.9091797 68.3574219,10.4150391 C68.3574219,9.65332031 68.5625,8.92089844 68.9140625,8.26171875 C71.0234375,10.8691406 74.1875,12.5683594 77.7324219,12.7441406 C77.6591797,12.4365234 77.6298828,12.0849609 77.6298828,11.7773438 C77.6298828,9.40429688 79.5048828,7.5 81.8632812,7.5 C83.0791016,7.5 84.1923828,8.02734375 84.9541016,8.84765625 C85.9208984,8.64257813 86.7851562,8.30566406 87.6201172,7.80761719 C87.3125,8.81835938 86.6826172,9.65332031 85.7890625,10.1806641 C86.6533203,10.0634766 87.4882812,9.82910156 88.25,9.50683594 C87.6640625,10.3417969 86.9609375,11.1181641 86.1259766,11.7041016 L86.1259766,11.7041016 Z" id="twitter"></path>
            </g>
        </g>
    </g>
</svg>